<svg width="702" height="202" viewBox="0 0 702 202" fill="none" xmlns="http://www.w3.org/2000/svg">
<path d="M100.5 201.558C156.005 201.558 201 156.438 201 100.779C201 45.1204 156.005 0 100.5 0C44.9954 0 0 45.1204 0 100.779C0 156.438 44.9954 201.558 100.5 201.558Z" fill="#3F3D56"/>
<ellipse cx="100.551" cy="100.83" rx="56.6639" ry="56.8213" fill="white"/>
<path d="M78.24 125.726V105.95L84.288 99.9023L79.2 94.8143V76.1903L88.032 67.3583H114.912L123.744 76.1903V94.8143L118.656 99.9023L124.704 105.95V125.726L115.872 134.558H87.072L78.24 125.726ZM111.648 97.2143L116.448 92.5103V78.5903L111.648 73.8863H91.296L86.496 78.5903V92.5103L91.296 97.2143H111.648ZM112.608 128.03L117.408 123.326V108.254L112.608 103.55H90.336L85.536 108.254V123.326L90.336 128.03H112.608Z" fill="black"/>
<path d="M238.96 71.584V57.544L243.496 53.008L239.68 49.192V36.016L247.096 28.6H268.264L275.68 36.016V49.192L271.864 53.008L276.4 57.544V71.584L268.984 79H246.376L238.96 71.584ZM264.448 49.912L267.328 47.032V38.68L264.448 35.8H250.912L248.032 38.68V47.032L250.912 49.912H264.448ZM265.168 71.8L268.048 68.92V59.776L265.168 56.968H250.192L247.312 59.776V68.92L250.192 71.8H265.168ZM283.592 57.04H307.496V64.096H283.592V57.04ZM315.767 28.6H346.295L353.279 35.584V49.696L350.183 52.792L355.511 58.12V71.44L347.951 79H315.767V28.6ZM342.119 50.272L345.071 47.32V38.536L342.191 35.656H323.903V50.272H342.119ZM343.847 71.944L347.303 68.488V60.424L343.847 57.04H323.903V71.944H343.847ZM361.998 72.592V64.096L368.406 57.76H386.91V52.432L384.246 49.768H372.942L370.278 52.432V54.736H362.286V50.56L369.63 43.144H387.558L394.902 50.56V79H387.486V73.456L381.726 79H368.406L361.998 72.592ZM380.934 72.592L386.91 66.832V63.808H372.294L369.99 66.04V70.432L372.15 72.592H380.934ZM404.29 27.592H412.426V79H404.29V27.592ZM422.501 27.592H430.637V79H422.501V27.592ZM240.04 122.6H274.456V129.728H248.392V145.136H271V152.264H248.392V173H240.04V122.6ZM278.054 165.8V144.344L285.182 137.144H305.054L312.254 144.344V165.8L305.054 173H285.182L278.054 165.8ZM301.238 166.16L304.118 163.28V146.864L301.238 143.984H289.07L286.19 146.864V163.28L289.07 166.16H301.238ZM320.891 137.144H328.451V143.264L334.427 137.144H344.363V144.128H336.227L329.027 151.472V173H320.891V137.144ZM353.029 165.872V144.056H346.549V137.144H353.173V125.48H361.165V137.144H372.181V144.056H361.165V163.28L363.973 166.088H372.181V173H360.157L353.029 165.872ZM378.328 165.728V137.144H386.464V163.208L389.272 166.016H395.536L403.168 158.384V137.144H411.304V173H403.744V166.376L397.048 173H385.6L378.328 165.728ZM420.664 137.144H428.224V143.696L434.776 137.144H446.152L453.712 144.704V173H445.576V146.936L442.768 144.128H436.288L428.8 151.688V173H420.664V137.144ZM461.991 165.872V144.344L469.119 137.144H488.631L495.903 144.344V157.736H470.127V163.496L472.863 166.232H485.175L487.767 163.568V161.408H495.831V166.016L488.847 173H469.047L461.991 165.872ZM487.767 151.76V146.792L484.959 143.912H472.935L470.127 146.792V151.76H487.767ZM534.99 129.728H519.87V122.6H558.462V129.728H543.342V173H534.99V129.728ZM557.405 165.872V144.344L564.533 137.144H584.045L591.317 144.344V157.736H565.541V163.496L568.277 166.232H580.589L583.181 163.568V161.408H591.245V166.016L584.261 173H564.461L557.405 165.872ZM583.181 151.76V146.792L580.373 143.912H568.349L565.541 146.792V151.76H583.181ZM599.97 121.592H608.106V173H599.97V121.592ZM618.181 121.592H626.317V173H618.181V121.592ZM635.312 165.872V144.344L642.44 137.144H661.952L669.224 144.344V157.736H643.448V163.496L646.184 166.232H658.496L661.088 163.568V161.408H669.152V166.016L662.168 173H642.368L635.312 165.872ZM661.088 151.76V146.792L658.28 143.912H646.256L643.448 146.792V151.76H661.088ZM677.516 137.144H685.076V143.264L691.052 137.144H700.988V144.128H692.852L685.652 151.472V173H677.516V137.144Z" fill="#5964E0"/>
</svg>
