<svg width="221" height="221" viewBox="0 0 221 221" fill="none" xmlns="http://www.w3.org/2000/svg">
<path d="M110.092 220.795C170.894 220.795 220.184 171.369 220.184 110.398C220.184 49.4267 170.894 0 110.092 0C49.2898 0 0 49.4267 0 110.398C0 171.369 49.2898 220.795 110.092 220.795Z" fill="#3F3D56"/>
<ellipse cx="110.147" cy="110.453" rx="62.072" ry="62.2444" fill="white"/>
<path d="M85.1121 129.502V109.726L91.1601 103.678L86.0721 98.5899V79.9659L94.9041 71.1339H121.784L130.616 79.9659V98.5899L125.528 103.678L131.576 109.726V129.502L122.744 138.334H93.9441L85.1121 129.502ZM118.52 100.99L123.32 96.2859V82.3659L118.52 77.6619H98.1681L93.3681 82.3659V96.2859L98.1681 100.99H118.52ZM119.48 131.806L124.28 127.102V112.03L119.48 107.326H97.2081L92.4081 112.03V127.102L97.2081 131.806H119.48Z" fill="black"/>
</svg>
